<svg id="visual" viewBox="0 0 1920 400" width="1920" height="400" xmlns="http://www.w3.org/2000/svg" xmlns:xlink="http://www.w3.org/1999/xlink" version="1.1"><path d="M0 184L45.7 188.8C91.3 193.7 182.7 203.3 274.2 194.3C365.7 185.3 457.3 157.7 548.8 160.7C640.3 163.7 731.7 197.3 823 216.5C914.3 235.7 1005.7 240.3 1097 219.3C1188.3 198.3 1279.7 151.7 1371.2 153.2C1462.7 154.7 1554.3 204.3 1645.8 226C1737.3 247.7 1828.7 241.3 1874.3 238.2L1920 235L1920 401L1874.3 401C1828.7 401 1737.3 401 1645.8 401C1554.3 401 1462.7 401 1371.2 401C1279.7 401 1188.3 401 1097 401C1005.7 401 914.3 401 823 401C731.7 401 640.3 401 548.8 401C457.3 401 365.7 401 274.2 401C182.7 401 91.3 401 45.7 401L0 401Z" fill="#753cba" stroke-linecap="round" stroke-linejoin="miter"></path></svg>